#!OML:ASF \\sashay\E\basketball\basketball\Project 1\Capture day 1\Session 1\Subject.ASF
:FULLY-SPECIFIED
:DEGREES
1
root -33.0377 15.1147 2.09709 -175.445 -5.45494 -175.515
lowerback 25.4177 3.01167 -11.6442
upperback 8.16615 -0.729876 0.85481
thorax -4.89391 -1.19496 7.91127
lowerneck -8.23513 -12.6358 -18.2252
upperneck -17.7971 -9.80837 38.411
head 0.414872 -3.28965 16.0612
rclavicle -1.90833e-014 -6.36111e-015
rhumerus -23.8173 -6.02587 -92.244
rradius 51.1328
rwrist -8.30579
rhand -15.667 34.1586
rfingers 7.12502
rthumb 10.5214 4.44188
lclavicle -1.90833e-014 -6.36111e-015
lhumerus -27.2077 -13.4765 79.4576
lradius 45.022
lwrist 18.6968
lhand -12.1765 14.7636
lfingers 7.12502
lthumb 13.8869 44.28
rfemur -33.3157 -20.7604 22.3493
rtibia 59.8053
rfoot -21.1054 -9.95267
rtoes -8.5415
lfemur -31.347 18.5158 -6.75535
ltibia 50.5918
lfoot -15.8072 -5.9933
ltoes -27.6831
2
root -32.9842 15.0408 2.15768 -174.608 -5.63537 -174.875
lowerback 25.8843 3.18465 -11.4023
upperback 8.1564 -0.520566 0.869592
thorax -5.1849 -1.07818 7.74235
lowerneck -8.12368 -7.48572 -18.626
upperneck -22.2914 -10.1532 37.7775
head -1.11329 -8.03795 16.2841
rclavicle -1.74931e-014 -3.18055e-014
rhumerus -24.0364 -6.67961 -91.6186
rradius 53.1881
rwrist -9.8429
rhand -16.7617 35.1173
rfingers 7.12502
rthumb 9.46532 5.34987
lclavicle -1.74931e-014 -3.18055e-014
lhumerus -25.6592 -12.5696 78.0176
lradius 44.7349
lwrist 18.9226
lhand -12.4397 15.1765
lfingers 7.12502
lthumb 13.6332 44.7101
rfemur -35.674 -20.9805 23.2527
rtibia 61.3076
rfoot -20.82 -10.6279
rtoes -7.32173
lfemur -33.7721 18.8749 -6.19452
ltibia 52.4722
lfoot -15.6971 -6.54147
ltoes -26.2832
3
root -32.9257 14.9487 2.22143 -173.95 -5.82857 -173.888
lowerback 26.5797 3.42747 -11.0675
upperback 8.15586 -0.20919 1.17082
thorax -5.59294 -0.91263 7.81741
lowerneck -8.22838 -7.70744 -18.6064
upperneck -23.4871 -10.4517 38.117
head -1.30038 -8.39065 16.4709
rclavicle 2.38542e-014 5.08889e-014
rhumerus -24.0782 -7.29213 -90.627
rradius 55.0352
rwrist -11.0175
rhand -18.0741 36.2251
rfingers 7.12502
rthumb 8.19881 6.40415
lclavicle 2.38542e-014 5.08889e-014
lhumerus -23.9382 -11.0068 76.7847
lradius 44.2968
lwrist 18.5994
lhand -12.6012 15.777
lfingers 7.12502
lthumb 13.4776 45.3209
rfemur -37.7873 -20.941 24.4029
rtibia 62.7716
rfoot -20.7013 -11.737
rtoes -5.95886
lfemur -36.1766 20.1879 -5.33682
ltibia 54.2534
lfoot -15.4077 -7.54368
ltoes -27.7999
4
root -32.8614 14.8454 2.27937 -173.68 -6.18865 -173.149
lowerback 27.6836 3.72927 -10.9075
upperback 8.25203 0.0347682 1.44779
thorax -6.07301 -0.803353 7.9934
lowerneck -7.62344 -7.40601 -18.8457
upperneck -25.3551 -10.0318 38.5777
head -2.00125 -8.51681 17.094
rclavicle 7.95139e-016 -3.33958e-014
rhumerus -24.0242 -8.09972 -89.5441
rradius 56.8102
rwrist -11.7694
rhand -19.6865 37.1385
rfingers 7.12502
rthumb 6.64243 7.26266
lclavicle 7.95139e-016 -3.33958e-014
lhumerus -22.3603 -10.0177 75.8773
lradius 44.682
lwrist 20.5158
lhand -14.4148 17.1656
lfingers 7.12502
lthumb 11.7291 46.8172
rfemur -39.2757 -21.0769 24.9653
rtibia 64.09
rfoot -20.853 -12.6953
rtoes -3.5729
lfemur -38.1494 21.4149 -4.76851
ltibia 55.8617
lfoot -15.3773 -7.74285
ltoes -32.6013
5
root -32.8092 14.732 2.33142 -172.657 -6.65107 -172.853
lowerback 27.8699 3.73932 -10.645
upperback 8.2243 0.0981375 1.352
thorax -6.21092 -0.756846 7.71489
lowerneck -7.2354 -7.37661 -18.6813
upperneck -26.7968 -10.0161 38.8905
head -2.46993 -8.79361 17.424
rclavicle -7.95139e-015 1.90833e-014
rhumerus -23.9125 -9.31015 -88.5846
rradius 58.3894
rwrist -12.3143
rhand -21.1012 38.047
rfingers 7.12502
rthumb 5.27667 8.13266
lclavicle -7.95139e-015 1.90833e-014
lhumerus -20.6773 -8.77425 74.5768
lradius 45.1265
lwrist 21.62
lhand -14.1892 17.5476
lfingers 7.12502
lthumb 11.9466 47.1867
rfemur -41.6942 -21.4829 25.1209
rtibia 65.3
rfoot -20.7241 -13.3105
rtoes -0.856099
lfemur -40.93 21.8568 -4.96812
ltibia 57.392
lfoot -15.443 -6.87835
ltoes -37.5047
6
root -32.7332 14.6361 2.36587 -172.299 -6.81171 -172.593
lowerback 28.6486 4.19311 -10.8519
upperback 8.32508 0.456903 1.3134
thorax -6.5446 -0.598769 7.68835
lowerneck -6.61672 -7.35473 -18.337
upperneck -28.3416 -10.0183 39.0973
head -3.04113 -9.10512 17.7192
rclavicle 9.54166e-015 -2.06736e-014
rhumerus -23.7596 -10.7327 -87.5598
rradius 59.711
rwrist -12.9321
rhand -22.5996 39.0223
rfingers 7.12502
rthumb 3.82973 9.07695
lclavicle 9.54166e-015 -2.06736e-014
lhumerus -18.8515 -7.27895 73.2809
lradius 45.7235
lwrist 22.4953
lhand -13.1026 17.9481
lfingers 7.12502
lthumb 12.9943 47.5234
rfemur -43.0037 -21.5127 24.8198
rtibia 66.2277
rfoot -20.6269 -14.2905
rtoes 1.32858
lfemur -42.448 22.0358 -4.62345
ltibia 58.7455
lfoot -15.8745 -6.61209
ltoes -38.5616
7
root -32.6624 14.5411 2.40438 -171.878 -7.33703 -172.3
lowerback 29.6429 4.48893 -11.0562
upperback 8.12584 0.579902 1.73342
thorax -6.74061 -0.580946 7.64599
lowerneck -6.2035 -7.28284 -17.9412
upperneck -29.7576 -9.95825 39.0704
head -3.60365 -9.34383 17.8959
rclavicle 2.8625e-014 -3.18055e-015
rhumerus -23.4512 -11.9218 -86.3971
rradius 60.8411
rwrist -13.7474
rhand -24.2934 39.9458
rfingers 7.12502
rthumb 2.19403 9.97729
lclavicle 2.8625e-014 -3.18055e-015
lhumerus -17.0005 -5.31804 72.2531
lradius 46.3217
lwrist 22.7091
lhand -12.0681 17.6794
lfingers 7.12502
lthumb 13.9914 47.1886
rfemur -44.2796 -21.8462 24.5429
rtibia 67.1059
rfoot -20.3992 -15.6847
rtoes 2.05822
lfemur -44.2976 22.3199 -4.38044
ltibia 60.1047
lfoot -16.1838 -7.17813
ltoes -37.08
8
root -32.5879 14.4427 2.44028 -171.428 -7.65721 -172.095
lowerback 30.25 4.81243 -11.5591
upperback 8.2736 0.704675 1.88275
thorax -6.85534 -0.555585 8.02143
lowerneck -6.3491 -7.43895 -17.3486
upperneck -30.8742 -10.256 39.0258
head -3.88133 -9.73434 17.8346
rclavicle 3.65764e-014 5.24792e-014
rhumerus -22.9464 -13.1426 -85.2104
rradius 61.7881
rwrist -14.3446
rhand -25.542 40.904
rfingers 7.12502
rthumb 0.98805 10.9265
lclavicle 3.65764e-014 5.24792e-014
lhumerus -15.2516 -3.21019 71.2639
lradius 47.1473
lwrist 21.8184
lhand -11.1132 17.188
lfingers 7.12502
lthumb 14.9114 46.6312
rfemur -45.4557 -22.0005 24.0416
rtibia 67.9232
rfoot -20.258 -16.4894
rtoes 3.78843
lfemur -46.1822 23.3925 -4.36534
ltibia 61.478
lfoot -15.8473 -8.0476
ltoes -35.9573
9
root -32.5152 14.3403 2.47401 -171.007 -7.76312 -171.977
lowerback 30.7889 5.16481 -11.8742
upperback 8.4677 0.880835 1.73582
thorax -6.88915 -0.517945 7.95651
lowerneck -6.5818 -7.69161 -16.5753
upperneck -31.7919 -10.6922 39.1311
head -4.03723 -10.21 17.7318
rclavicle -3.49861e-014 -9.54166e-014
rhumerus -22.4642 -14.9164 -84.2147
rradius 62.6787
rwrist -14.7057
rhand -26.2271 41.9824
rfingers 7.12502
rthumb 0.326447 12.0029
lclavicle -3.49861e-014 -9.54166e-014
lhumerus -13.4118 -2.04527 70.1873
lradius 48.6984
lwrist 22.3797
lhand -12.0667 18.0298
lfingers 7.12502
lthumb 13.9927 47.5389
rfemur -46.506 -21.8855 23.1322
rtibia 68.5136
rfoot -20.059 -16.5179
rtoes 6.55772
lfemur -48.0006 24.8604 -4.50584
ltibia 62.8811
lfoot -15.1252 -9.02526
ltoes -36.0627
